PathFileType  4	(X/Y/Z) C:\Users\antoi\Documents\MyRepositories\mobilecap\ResultsAnalysis
DataRate	CameraRate	NumFrames	NumMarkers	Units	OrigDataRate	OrigDataStartFrame	OrigNumFrames
100.0	100.0	4	51	mm	100.0	652	1302
Frame#	Time	r_knee			r_shank_antsup			r_ankle			r_calc			r_5meta			r_toe			L_knee			L_shank_antsup			L_ankle			L_calc			L_5meta			L_toe			r_sh2			r_sh3			r_sh4			L_sh2			L_sh3			r_thigh1			r_thigh2			r_thigh3			r_thigh4			r_thigh5			L_thigh1			L_thigh2			L_thigh3			L_thigh4			r.ASIS			r.PSIS			L.ASIS			L.PSIS			C7			R_Shoulder			L_Shoulder			R_Sternum			L_Sternum			R_humerus			R_elbow_med			R_elbow_lat			R_forearm			R_wrist_radius			R_wrist_ulna			L_humerus			L_elbow_med			L_elbow_lat			L_forearm			L_wrist_radius			L_wrist_ulna			R_HJC			L_HJC			R_HJC_reg			L_HJC_reg			
		X1	Y1	Z1	X2	Y2	Z2	X3	Y3	Z3	X4	Y4	Z4	X5	Y5	Z5	X6	Y6	Z6	X7	Y7	Z7	X8	Y8	Z8	X9	Y9	Z9	X10	Y10	Z10	X11	Y11	Z11	X12	Y12	Z12	X13	Y13	Z13	X14	Y14	Z14	X15	Y15	Z15	X16	Y16	Z16	X17	Y17	Z17	X18	Y18	Z18	X19	Y19	Z19	X20	Y20	Z20	X21	Y21	Z21	X22	Y22	Z22	X23	Y23	Z23	X24	Y24	Z24	X25	Y25	Z25	X26	Y26	Z26	X27	Y27	Z27	X28	Y28	Z28	X29	Y29	Z29	X30	Y30	Z30	X31	Y31	Z31	X32	Y32	Z32	X33	Y33	Z33	X34	Y34	Z34	X35	Y35	Z35	X36	Y36	Z36	X37	Y37	Z37	X38	Y38	Z38	X39	Y39	Z39	X40	Y40	Z40	X41	Y41	Z41	X42	Y42	Z42	X43	Y43	Z43	X44	Y44	Z44	X45	Y45	Z45	X46	Y46	Z46	X47	Y47	Z47	X48	Y48	Z48	X49	Y49	Z49	X50	Y50	Z50	X51	Y51	Z51	

652	6.51000000	-115.06692	455.28225	-403.56432	-67.16728	374.73520	-400.18200	-263.24974	96.78831	-428.08347	-334.17585	64.76400	-467.91142	-170.33590	43.59097	-381.62238	-118.52206	69.72628	-432.40370	-123.82449	452.08887	-946.67116	-88.07923	356.72000	-965.77507	-261.62319	98.16555	-926.17360	-328.54495	63.81190	-874.23858	-164.51804	40.32792	-973.59390	-119.44423	63.97031	-922.37648	-139.20105	283.08726	-389.29251	-135.26640	418.28686	-388.48266	-199.84996	326.40676	-390.78456	-166.00092	400.38947	-956.31437	-217.78729	288.02981	-958.16080	-356.88140	637.98700	-483.27788	-262.64366	584.80223	-453.75453	-278.79821	530.12524	-415.33362	-419.67137	549.90514	-449.36795	-318.02167	492.32007	-426.20783	-358.35879	592.89969	-918.81485	-230.43573	548.81735	-933.18986	-395.72977	486.45030	-885.83849	-263.71084	445.94890	-919.45726	-317.02433	629.07714	-555.04436	-459.02718	732.45191	-636.17723	-321.45950	619.84623	-792.38402	-462.61840	739.18713	-723.29295	-104.90658	951.34476	-679.44982	-9.55867	911.69456	-558.59907	-24.85860	921.16552	-810.85385	-14.12382	826.75063	-658.72599	-15.02236	824.30036	-698.72240	41.34617	883.27174	-455.94669	142.04291	707.55035	-368.01515	152.25813	779.67342	-328.89970	227.02821	826.09718	-437.19450	292.60401	857.92142	-542.01933	325.41822	848.92190	-531.45279	22.95871	897.50336	-897.99948	143.43849	714.58756	-991.39776	146.06585	794.40191	-1021.55802	203.18487	826.09032	-932.84067	297.47937	859.65333	-825.11954	326.51564	859.19146	-845.42150	-414.77970	584.80809	-572.10402	-415.79020	581.46810	-778.54543	-406.32134	580.87303	-587.47069	-412.76015	592.94897	-743.66162	
653	6.52000000	-114.70695	455.62297	-404.27749	-67.06843	374.86079	-400.84150	-263.29450	96.92403	-428.02354	-334.20307	64.76377	-467.86304	-170.30859	43.51141	-381.62801	-118.57008	69.78751	-432.26615	-123.25464	452.49717	-945.41078	-87.73352	357.12367	-965.07514	-261.55383	98.37347	-926.44972	-328.48353	63.89954	-874.39349	-164.46646	40.49776	-973.92116	-119.42790	63.84695	-922.28465	-139.21450	283.26847	-389.55922	-135.13182	418.48172	-389.40975	-199.76960	326.61056	-391.31497	-165.67124	400.75779	-955.04764	-217.56859	288.53053	-957.95328	-354.89122	641.19787	-483.38792	-261.09413	587.09318	-454.10818	-277.59175	532.49700	-415.82820	-418.47220	553.62915	-449.36796	-317.22419	495.21077	-426.33478	-355.84876	595.72297	-917.46864	-228.94593	550.57148	-932.40481	-394.97165	489.89390	-885.33462	-263.14559	448.28273	-918.89794	-316.59882	631.81291	-556.56517	-457.56605	736.70123	-636.48626	-320.85060	622.97234	-792.65237	-461.30916	743.72836	-723.41460	-105.47637	957.31470	-679.30363	-10.05185	917.84191	-558.21952	-25.44194	927.78070	-810.99778	-13.93916	833.36275	-658.66849	-15.03759	830.74952	-698.93972	40.53062	889.30085	-455.47999	140.94724	713.62180	-366.93083	151.06012	785.57802	-328.04913	225.93920	832.32760	-435.86736	291.56922	864.29167	-540.69591	324.47567	855.27695	-530.04857	22.15101	904.08643	-898.46406	142.46617	721.01506	-991.97048	144.92469	801.01863	-1022.33104	202.47058	832.81214	-933.67056	296.81510	866.20019	-826.32823	325.72826	865.73618	-846.53276	-414.63535	588.43553	-572.88588	-415.82143	585.63535	-779.33437	-405.85371	584.79276	-588.66731	-412.54130	597.34677	-743.96890	
654	6.53000000	-114.33977	455.90555	-405.21624	-67.04202	375.10897	-401.30826	-263.33723	97.06019	-427.89076	-334.17615	64.77290	-467.77270	-170.30131	43.47330	-381.58705	-118.61720	69.82153	-432.17373	-122.62606	453.28555	-944.35014	-87.49148	357.42285	-964.05218	-261.48111	98.53748	-926.62954	-328.48972	63.93129	-874.47224	-164.42518	40.59534	-974.09999	-119.43960	63.74238	-922.19993	-139.27232	283.42320	-389.90077	-135.06334	418.72721	-390.07185	-199.73317	326.68395	-391.86025	-165.38444	401.22022	-953.75686	-217.42695	288.81679	-957.35787	-352.97851	644.46967	-483.52537	-259.52608	589.35587	-454.59466	-276.41998	534.97279	-416.39343	-417.12665	557.38729	-449.59418	-316.45778	498.03097	-426.64458	-354.22944	599.52030	-918.28753	-227.42985	552.43348	-931.60148	-394.17996	493.49459	-884.77209	-262.60517	450.57721	-918.05148	-316.24164	634.72207	-558.21467	-456.11332	741.27802	-636.65626	-320.43303	626.18031	-792.85660	-459.88103	748.52724	-723.57280	-106.03050	963.47144	-679.14051	-10.55624	924.12568	-557.81487	-26.09599	934.51452	-811.17964	-13.77182	840.13995	-658.58704	-15.14457	837.29496	-698.70816	39.67757	895.42571	-455.02688	139.68021	719.66876	-365.96755	149.79936	791.57968	-327.14365	224.78613	838.57691	-434.59405	290.47010	870.75044	-539.23020	323.43116	861.56071	-528.77419	21.34672	910.79953	-898.80075	141.34750	727.63237	-992.67125	143.74342	807.64085	-1023.06863	201.81475	839.71437	-934.48577	296.08252	872.85731	-827.67174	324.81048	872.47952	-847.66953	-414.60843	592.34619	-573.61818	-416.06585	590.03094	-780.07111	-405.63329	589.06671	-590.03411	-412.32273	601.93669	-744.34506	
655	6.54000000	-114.03854	456.28570	-405.99486	-67.11440	375.42813	-401.73886	-263.34570	97.12405	-427.69616	-334.13365	64.77265	-467.67366	-170.30108	43.41977	-381.55924	-118.63757	69.84300	-432.10620	-121.95735	454.28496	-943.48464	-87.37880	357.61434	-962.79536	-261.45538	98.59731	-926.66644	-328.51612	63.92500	-874.53913	-164.39706	40.57511	-974.09206	-119.46675	63.67579	-922.15325	-139.28515	283.69183	-390.35852	-135.04740	419.10563	-390.45757	-199.69816	326.83025	-392.23436	-165.14454	401.63000	-952.67588	-217.33522	288.89052	-956.36519	-351.01546	647.72165	-483.67485	-257.98612	591.62908	-455.12408	-275.27479	537.57991	-416.83804	-415.85438	561.25574	-449.88240	-315.80826	500.75847	-427.10957	-352.76748	603.60592	-919.49852	-225.80162	554.38734	-930.80718	-393.30904	497.30814	-884.38350	-262.16660	452.83540	-917.13618	-316.03162	637.71539	-560.18379	-454.75183	746.19110	-636.58110	-320.30611	629.36868	-792.95568	-458.49437	753.50966	-723.69509	-106.55351	969.83190	-679.00683	-11.08207	930.65625	-557.25565	-26.75371	941.39146	-811.32465	-13.57087	847.11629	-658.67503	-15.19964	844.14427	-698.36901	38.80781	901.77312	-454.26108	138.34832	725.72585	-365.09206	148.39910	797.76609	-325.98906	223.51746	844.79949	-433.39370	289.29880	877.20870	-537.74651	322.18997	867.87244	-527.43869	20.52014	917.56727	-899.03350	140.09192	734.47924	-993.64981	142.46607	814.24348	-1023.80197	200.94290	846.58687	-935.34458	295.23291	879.49833	-828.78530	323.87878	879.27434	-848.98823	-414.75759	596.47173	-574.28779	-416.69599	594.61221	-780.74111	-405.67604	593.85127	-591.59441	-412.25224	606.71183	-744.66860	
